<svg xmlns="http://www.w3.org/2000/svg" viewBox="0 0 32 32"><defs><style>.cls-1{fill:#e57200;}</style></defs><title>Untitled-1</title><g id="board"><polygon class="cls-1" points="5.206 5.345 25.685 5.345 20.313 10.716 21.211 11.614 26.794 6.031 26.794 20.901 28.064 20.901 28.064 4.761 29.948 2.877 29.05 1.979 26.955 4.075 16.635 4.075 16.635 1.509 15.365 1.509 15.365 4.075 3.936 4.075 3.936 20.901 5.206 20.901 5.206 5.345"/><polygon class="cls-1" points="30.445 23.123 1.555 23.123 1.555 24.393 12.354 24.393 7.893 29.672 8.863 30.491 14.017 24.393 17.983 24.393 23.137 30.491 24.107 29.672 19.646 24.393 30.445 24.393 30.445 23.123"/><rect class="cls-1" x="9.015" y="10.424" width="7.619" height="1.27"/><rect class="cls-1" x="9.015" y="16.774" width="13.646" height="1.27"/></g></svg>