<svg xmlns="http://www.w3.org/2000/svg" viewBox="0 0 32 32"><defs><style>.cls-1{fill:#e16e26;}</style></defs><title>Untitled-1</title><g id="compass"><path class="cls-1" d="M16,1.376A14.624,14.624,0,1,0,30.624,16,14.64,14.64,0,0,0,16,1.376Zm0,27.99A13.366,13.366,0,1,1,29.366,16,13.381,13.381,0,0,1,16,29.366Z"/><path class="cls-1" d="M13.648,13.648,8.211,23.789l10.141-5.437L23.789,8.211Zm.619,1.509,2.576,2.576-5.554,2.978Zm3.466,1.686-2.576-2.576,5.554-2.978Z"/><rect class="cls-1" x="4.777" y="15.371" width="2.359" height="1.258"/><rect class="cls-1" x="24.865" y="15.371" width="2.359" height="1.258"/><rect class="cls-1" x="15.371" y="24.865" width="1.258" height="2.359"/><rect class="cls-1" x="15.371" y="4.777" width="1.258" height="2.359"/><rect class="cls-1" x="22.473" y="21.923" width="1.258" height="2.359" transform="translate(-9.569 23.102) rotate(-45)"/><rect class="cls-1" x="8.269" y="7.718" width="1.258" height="2.359" transform="translate(-3.686 8.898) rotate(-45)"/></g></svg>