<svg xmlns="http://www.w3.org/2000/svg" viewBox="0 0 32 32"><defs><style>.cls-1{fill:#e57200;}</style></defs><title>Untitled-1</title><g id="people"><path class="cls-1" d="M15.961,10.248a4.015,4.015,0,1,0-4.014-4.015A4.019,4.019,0,0,0,15.961,10.248Zm0-7.122a3.108,3.108,0,1,1-3.107,3.107A3.111,3.111,0,0,1,15.961,3.126Z"/><path class="cls-1" d="M6.924,10.131A2.972,2.972,0,1,0,3.953,7.159,2.975,2.975,0,0,0,6.924,10.131Zm0-5.036A2.065,2.065,0,1,1,4.859,7.159,2.067,2.067,0,0,1,6.924,5.1Z"/><path class="cls-1" d="M27.9,11.905H22.254a1.714,1.714,0,0,0-1.4.805A2.335,2.335,0,0,0,20,12.547H11.928a2.34,2.34,0,0,0-.793.14,1.71,1.71,0,0,0-1.389-.782H4.1A1.959,1.959,0,0,0,2.317,14v5.6l1.792,1.067.286,7.4H9.342v-.907H5.267L5,20.137,3.224,19.082V14c0-.642.4-1.184.878-1.184H9.746a.777.777,0,0,1,.611.34A2.349,2.349,0,0,0,9.571,14.9v6.5l2.564,1.242.406,7.137h6.841l.406-7.137L22.352,21.4V14.9a2.351,2.351,0,0,0-.74-1.711.8.8,0,0,1,.642-.381H27.9c.476,0,.878.542.878,1.184v5.086L27,20.137l-.27,7.018H22.658v.907h4.947l.286-7.4L29.683,19.6V14A1.959,1.959,0,0,0,27.9,11.905Zm-6.453,8.929L18.913,22.06l-.388,6.814H13.4L13.01,22.06l-2.532-1.226V14.9a1.452,1.452,0,0,1,1.45-1.451H20a1.453,1.453,0,0,1,1.45,1.451Z"/><path class="cls-1" d="M25.076,10.131A2.972,2.972,0,1,0,22.1,7.159,2.975,2.975,0,0,0,25.076,10.131Zm0-5.036a2.065,2.065,0,1,1-2.065,2.064A2.067,2.067,0,0,1,25.076,5.1Z"/></g></svg>